<svg xmlns="http://www.w3.org/2000/svg" viewBox="0 0 300 85" preserveAspectRatio="xMidYMid meet" class="css-1121bvr" id="ddhabheg"><defs id="SvgjsDefs1482"/><g id="SvgjsG1483" featurekey="root" fill="currentColor"/><g id="SvgjsG1484" featurekey="symbol1" fill="currentColor" transform="matrix(0.12426624319985577,0,0,0.12426624319985577,7.428516104455676,3.7439044795354226)"><metadata xmlns="http://www.w3.org/2000/svg">Created by potrace 1.14, written by Peter Selinger 2001-2017</metadata><g xmlns="http://www.w3.org/2000/svg" transform="translate(0.000000,600.000000) scale(0.100000,-0.100000)" fill="currentColor" stroke="#000000"><path d="M3160 5494 c-413 -40 -538 -58 -1080 -155 -155 -28 -278 -43 -395 -50 -93 -6 -180 -14 -193 -20 -60 -24 -71 -138 -43 -444 30 -320 43 -400 117 -725 123 -538 223 -920 259 -995 31 -64 95 -145 114 -145 4 0 7 69 7 153 l-1 152 -107 325 c-219 667 -274 863 -318 1130 -37 217 -49 440 -28 480 l14 25 149 -3 c114 -3 223 4 450 27 611 62 636 63 949 62 323 -2 380 -8 585 -61 132 -35 148 -36 177 -12 36 29 51 64 53 123 3 86 -10 96 -144 114 -109 15 -478 27 -565 19z"/><path d="M4148 5382 c-76 -39 -361 -236 -506 -349 -170 -133 -958 -880 -1028 -976 -40 -54 -84 -150 -84 -182 0 -17 16 -20 25 -5 3 5 38 25 78 43 110 52 170 105 368 327 266 298 500 549 635 680 252 245 578 477 637 454 7 -2 44 -64 83 -137 43 -78 131 -214 218 -334 211 -293 458 -646 481 -690 11 -21 66 -122 122 -224 114 -206 139 -266 189 -449 19 -69 43 -133 53 -143 41 -42 138 -29 199 26 31 29 28 56 -19 165 -151 353 -337 629 -790 1172 -303 363 -324 390 -409 525 -34 55 -72 108 -84 117 -34 28 -87 22 -168 -20z"/><path d="M1182 4845 c-69 -78 -232 -321 -287 -428 -134 -257 -244 -526 -449 -1092 -42 -115 -115 -290 -163 -387 -98 -202 -98 -206 -19 -274 45 -39 299 -167 522 -262 239 -102 1292 -421 1444 -437 100 -11 240 21 184 41 -10 4 -39 23 -64 42 -100 76 -163 96 -540 176 -636 134 -854 189 -1060 264 -304 111 -479 200 -495 251 -4 14 17 56 71 142 45 73 114 207 169 328 270 601 329 722 482 975 140 233 165 266 303 410 101 106 110 118 110 153 -1 51 -16 76 -70 112 -64 43 -90 41 -138 -14z"/><path d="M3692 3829 c-90 -15 -90 -20 0 -78 132 -87 164 -97 535 -176 668 -141 871 -192 1108 -281 262 -98 455 -200 455 -242 0 -10 -32 -69 -72 -132 -39 -63 -107 -194 -151 -290 -323 -714 -342 -753 -510 -1030 -131 -217 -174 -274 -324 -431 -87 -90 -94 -105 -72 -167 13 -39 93 -92 137 -92 27 0 39 9 77 58 95 119 244 352 302 472 149 305 205 442 389 950 80 218 139 364 195 473 43 87 79 170 79 184 0 51 -82 114 -262 201 -353 173 -466 215 -1008 377 -657 197 -766 222 -878 204z"/><path d="M2881 3290 c-65 -23 -101 -46 -101 -63 0 -7 -22 -29 -49 -50 -64 -47 -98 -106 -118 -203 -14 -70 -14 -80 1 -111 9 -18 16 -44 16 -57 0 -56 32 -126 81 -180 59 -65 105 -95 151 -101 18 -2 60 -13 93 -25 70 -26 133 -22 217 11 75 29 218 175 241 245 27 81 32 159 13 188 -9 14 -16 38 -16 54 0 16 -7 49 -16 75 -28 81 -148 197 -204 197 -15 0 -47 9 -71 20 -58 26 -165 26 -238 0z"/><path d="M4095 2688 l1 -153 106 -320 c102 -308 214 -669 257 -825 74 -273 124 -709 91 -796 l-11 -27 -147 6 c-116 5 -196 1 -382 -18 -711 -72 -676 -70 -1020 -67 -345 2 -354 3 -582 59 -140 35 -147 36 -172 20 -38 -25 -57 -60 -62 -115 -6 -62 8 -100 42 -112 42 -16 329 -41 474 -41 284 0 564 34 1227 152 211 37 325 52 449 58 192 11 209 18 232 92 22 72 2 407 -43 719 -18 123 -125 591 -230 1010 -79 313 -112 400 -179 473 -19 20 -39 37 -43 37 -4 0 -8 -69 -8 -152z"/><path d="M466 2402 c-68 -39 -74 -57 -46 -134 41 -114 167 -366 234 -467 176 -269 310 -443 710 -920 101 -121 212 -266 256 -335 43 -67 87 -131 98 -143 33 -35 92 -31 177 13 110 56 477 317 610 434 194 171 844 793 908 869 46 56 86 134 94 187 6 37 5 38 -13 23 -10 -8 -59 -34 -107 -58 -107 -52 -149 -91 -446 -424 -117 -130 -289 -319 -384 -419 -316 -334 -728 -646 -793 -601 -6 5 -42 66 -81 138 -40 74 -132 216 -214 330 -183 253 -392 551 -446 635 -22 36 -92 160 -156 275 -113 208 -167 341 -207 513 -17 74 -44 103 -100 108 -36 3 -55 -2 -94 -24z"/></g></g><g id="SvgjsG1485" featurekey="text1" fill="currentColor" transform="matrix(1.521258878691211,0,0,1.521258878691211,98.32393795383882,16.116718869773308)"><path d="M9.3729 21.6612 c0.18644 0 0.32203 0.13592 0.32203 0.33915 l0 1.678 c0 0.16949 -0.13559 0.32186 -0.32203 0.32186 l-8.0169 0 c-0.16949 0 -0.25424 -0.13543 -0.25424 -0.30508 l0 -12.932 c0 -0.16949 0.13559 -0.32203 0.32203 -0.32203 l1.7627 0 c0.18644 0 0.33898 0.15254 0.33898 0.32203 l0 10.898 l5.8475 0 z M19.084718644067795 23.57644 c-0.25441 -1.661 -0.27153 -3.1529 -0.20373 -4.7631 c0.08458 -2.0168 -1.0678 -3.3049 -3.1356 -3.3049 c-1.3729 0 -2.8136 0.38983 -3.6441 0.84746 c-0.16933 0.10186 -0.30492 0.28831 -0.22017 0.4578 l0.54237 1.2881 c0.084746 0.18644 0.22034 0.25424 0.47458 0.15254 c1.0169 -0.44068 1.8644 -0.69492 2.678 -0.69492 c0.66102 0 1.0678 0.13559 1.051 0.79661 c-2.7458 0.47458 -5.2373 1.0169 -5.2373 3.339 c0 1.5424 1.1017 2.3897 2.8475 2.3897 c1.4407 0 2.0847 -0.42356 2.6102 -0.9322 c0.11864 0.50864 0.32203 0.84746 0.74576 0.84746 l1.2712 0 c0.18644 0 0.25424 -0.22017 0.22034 -0.42356 z M14.660718644067796 22.2541 c-0.52542 0 -0.88136 -0.15254 -0.88136 -0.59322 c0 -0.76271 1.6102 -1.1017 2.8136 -1.3559 c-0.016949 0.37288 -0.016949 0.94915 0 1.2712 c-0.50847 0.42356 -1.322 0.67797 -1.9322 0.67797 z M35.253949152542376 23.57644 c0.050847 0.22034 -0.033898 0.42373 -0.20339 0.42373 l-1.4237 0 c-0.52542 0 -0.83051 -0.37288 -0.83051 -0.84746 l0 -4.2202 c0 -0.94915 -0.74576 -1.339 -1.5424 -1.339 c-0.74576 0 -1.3898 0.42356 -1.9661 0.98288 l0 0.18644 l0 3.7119 c0.016949 0.47458 0.067797 0.79661 0.13559 1.1017 c0.033898 0.22034 -0.033898 0.42356 -0.20356 0.42356 l-1.4236 0 c-0.54237 0 -0.84746 -0.37288 -0.84746 -0.84746 l0 -4.2202 c0 -0.94915 -0.72881 -1.339 -1.5254 -1.339 c-0.74559 0 -1.3897 0.40661 -1.9659 0.98288 l0 5.1017 c0 0.16949 -0.15254 0.32186 -0.32203 0.32186 l-1.712 0 c-0.16949 0 -0.30508 -0.15238 -0.30508 -0.32186 l0 -7.7456 c0 -0.16949 0.13559 -0.32203 0.30508 -0.32203 l1.1697 0 c0.42373 0 0.71169 0.35593 0.81339 0.71186 c0.61017 -0.44068 1.3898 -0.81356 2.3559 -0.81356 c1.1017 0 2.2203 0.45763 2.8983 1.322 l0 -0.033898 c0.64407 -0.57627 1.6102 -1.2881 2.9492 -1.2881 c1.7288 0 3.5085 1.1525 3.5085 3.2542 l0 3.7119 c0.016949 0.47458 0.067797 0.79661 0.13559 1.1017 z M41.74554406779661 15.5256 c1.9661 0 3.8641 1.6269 3.8641 4.1524 c0 2.4915 -1.5763 4.4234 -3.9492 4.4234 c-0.88119 0 -1.5761 -0.27085 -2.1015 -0.62678 c-0.22034 0.33898 -0.69492 0.52542 -1.0169 0.52542 l-0.88136 0 c-0.16933 0 -0.32186 -0.15238 -0.32186 -0.32186 l0 -11.593 c0 -0.61017 -0.11864 -0.89831 -0.18644 -1.2203 c-0.050847 -0.22034 0.033732 -0.42373 0.22034 -0.42373 l1.4746 0 c0.49153 0 0.83051 0.32203 0.83051 0.77966 l0 4.8475 c0.52542 -0.30508 1.2034 -0.54237 2.0678 -0.54237 z M41.287644067796606 21.9492 c1.1186 0 2.0168 -0.81356 2.0168 -2.2712 s-1.0678 -1.9831 -1.8983 -1.9831 c-0.62712 0 -1.2034 0.20339 -1.7288 0.52542 l0 3.339 c0.44085 0.22034 0.96627 0.38983 1.6103 0.38983 z M54.67782711864407 10.441 c0.49153 0 0.83051 0.32186 0.83051 0.77949 l0 12.458 c0 0.16949 -0.15254 0.32186 -0.32203 0.32186 l-0.88136 0 c-0.32203 0 -0.79661 -0.20322 -1.0169 -0.5422 c-0.54237 0.37288 -1.2542 0.66085 -2.1356 0.66085 c-2.3898 0 -4.0169 -1.932 -4.0169 -4.4236 c0 -2.5254 1.9492 -4.1525 3.9153 -4.1525 c0.89831 0 1.5763 0.25441 2.1186 0.57644 l0 -4.0339 c0 -0.61017 -0.11864 -0.89831 -0.18644 -1.2203 c-0.050847 -0.22034 0.033898 -0.42373 0.20339 -0.42373 l1.4915 0 z M49.44052711864407 19.6949 c0 1.4576 0.94932 2.2712 2.0847 2.2712 c0.66102 0 1.2032 -0.18644 1.6441 -0.40678 l0 -3.3051 c-0.54237 -0.32203 -1.1356 -0.54237 -1.7797 -0.54237 c-0.83051 0 -1.9492 0.52542 -1.9492 1.9831 z M64.98302372881356 23.57644 c-0.25441 -1.661 -0.27153 -3.1529 -0.20373 -4.7631 c0.08458 -2.0168 -1.0678 -3.3049 -3.1356 -3.3049 c-1.3729 0 -2.8136 0.38983 -3.6441 0.84746 c-0.16933 0.10186 -0.30492 0.28831 -0.22017 0.4578 l0.54237 1.2881 c0.084746 0.18644 0.22034 0.25424 0.47458 0.15254 c1.0169 -0.44068 1.8644 -0.69492 2.678 -0.69492 c0.66102 0 1.0678 0.13559 1.051 0.79661 c-2.7458 0.47458 -5.2373 1.0169 -5.2373 3.339 c0 1.5424 1.1017 2.3897 2.8475 2.3897 c1.4407 0 2.0847 -0.42356 2.6102 -0.9322 c0.11864 0.50864 0.32203 0.84746 0.74576 0.84746 l1.2712 0 c0.18644 0 0.25424 -0.22017 0.22034 -0.42356 z M60.559023728813564 22.2541 c-0.52542 0 -0.88136 -0.15254 -0.88136 -0.59322 c0 -0.76271 1.6102 -1.1017 2.8136 -1.3559 c-0.016949 0.37288 -0.016949 0.94915 0 1.2712 c-0.50847 0.42356 -1.322 0.67797 -1.9322 0.67797 z  M80.05066440677967 10.441 c0.18661 0 0.33898 0.15254 0.33898 0.32203 l0 1.6949 c0 0.18644 -0.13559 0.32203 -0.33898 0.32203 l-6.0678 0 l0 3.4068 l3.2203 0 c0.18644 0 0.33898 0.15254 0.33898 0.33915 l0 1.6778 c0 0.20339 -0.13559 0.3222 -0.33898 0.3222 l-3.2203 0 l0 5.1356 c0 0.20339 -0.11864 0.33881 -0.30508 0.33881 l-1.2881 0 c-0.52542 0 -0.83051 -0.37288 -0.83051 -0.86441 l0 -12.373 c0 -0.16949 0.13559 -0.32203 0.32203 -0.32203 l8.1695 0 z M85.91510508474578 24.11864 c2.3729 0 4.339 -1.8642 4.339 -4.3049 c0 -2.4746 -1.9661 -4.322 -4.339 -4.322 s-4.339 1.8475 -4.339 4.322 c0 2.4407 1.9661 4.3049 4.339 4.3049 z M85.91510508474578 21.9493 c-1.2034 0 -2.0847 -0.98305 -2.0847 -2.1186 c0 -1.1695 0.88136 -2.1525 2.0847 -2.1525 s2.0847 0.98305 2.0847 2.1525 c0 1.1356 -0.88136 2.1186 -2.0847 2.1186 z M98.16930338983052 15.9663 c0.22034 0.15254 0.30525 0.27119 0.13592 0.50847 l-0.88136 1.2881 c-0.10169 0.15254 -0.23729 0.20339 -0.44068 0.15254 c-0.23729 -0.084746 -0.47458 -0.20339 -0.98322 -0.20339 c-0.50847 0 -1.4576 0.22034 -1.7119 1.322 l0 4.6441 c0 0.16949 -0.13559 0.32186 -0.32203 0.32186 l-1.7119 0 c-0.16949 0 -0.30508 -0.15238 -0.30508 -0.32186 l0 -7.7456 c0 -0.16949 0.13559 -0.32203 0.30508 -0.32203 l1.1695 0 c0.45763 0 0.76271 0.40678 0.84729 0.76271 c0.50864 -0.44068 1.1697 -0.83068 2.1356 -0.83068 c0.86441 0 1.4746 0.22034 1.7627 0.42373 z M107.59326271186441 15.6102 c0.18644 0 0.30525 0.15304 0.30525 0.32253 l0 7.7456 c0 0.16949 -0.11864 0.32186 -0.30508 0.32186 l-1.322 0 c-0.28814 0 -0.55932 -0.35576 -0.66102 -0.69475 c-0.59322 0.42373 -1.3729 0.79627 -2.3559 0.79627 c-1.7288 0 -3.5254 -1.1524 -3.5254 -3.2541 l0 -3.7119 c0 -0.47441 -0.050847 -0.77966 -0.11864 -1.1017 c-0.050847 -0.22034 0.033898 -0.42373 0.20339 -0.42373 l1.4237 0 c0.52542 0 0.83051 0.37288 0.83051 0.84746 l0 4.2202 c0 0.94915 0.74559 1.339 1.5422 1.339 c0.72881 0 1.3898 -0.40678 1.9661 -0.98305 l0 -5.1017 c0 -0.16949 0.13559 -0.32203 0.32203 -0.32203 l1.6949 0 z M124.06750847457627 23.57644 c0.050847 0.22034 -0.033898 0.42373 -0.20339 0.42373 l-1.4237 0 c-0.52542 0 -0.83051 -0.37288 -0.83051 -0.84746 l0 -4.2202 c0 -0.94915 -0.74576 -1.339 -1.5424 -1.339 c-0.74576 0 -1.3898 0.42356 -1.9661 0.98288 l0 0.18644 l0 3.7119 c0.016949 0.47458 0.067797 0.79661 0.13559 1.1017 c0.033898 0.22034 -0.033898 0.42356 -0.20356 0.42356 l-1.4236 0 c-0.54237 0 -0.84746 -0.37288 -0.84746 -0.84746 l0 -4.2202 c0 -0.94915 -0.72881 -1.339 -1.5254 -1.339 c-0.74559 0 -1.3897 0.40661 -1.9659 0.98288 l0 5.1017 c0 0.16949 -0.15254 0.32186 -0.32203 0.32186 l-1.712 0 c-0.16949 0 -0.30508 -0.15238 -0.30508 -0.32186 l0 -7.7456 c0 -0.16949 0.13559 -0.32203 0.30508 -0.32203 l1.1697 0 c0.42373 0 0.71169 0.35593 0.81339 0.71186 c0.61017 -0.44068 1.3898 -0.81356 2.3559 -0.81356 c1.1017 0 2.2203 0.45763 2.8983 1.322 l0 -0.033898 c0.64407 -0.57627 1.6102 -1.2881 2.9492 -1.2881 c1.7288 0 3.5085 1.1525 3.5085 3.2542 l0 3.7119 c0.016949 0.47458 0.067797 0.79661 0.13559 1.1017 z M125.74559338983052 22.712 l0.72915 -1.1524 c0.13559 -0.23729 0.27119 -0.30508 0.47458 -0.20339 c0 0.016949 1.0169 0.52542 2 0.52542 c0.61017 0 0.86441 -0.18644 0.86441 -0.45763 c0 -0.33898 -0.35593 -0.45763 -1.4747 -0.74576 c-1.5254 -0.40678 -2.5763 -1.322 -2.5763 -2.6102 s1.1356 -2.5593 3.2203 -2.5593 c1.2542 0 1.9661 0.33898 2.7627 0.77966 c0.20339 0.11864 0.30508 0.32203 0.18644 0.49153 l-0.79695 1.2202 c-0.11864 0.16966 -0.28814 0.23746 -0.45763 0.18661 c-0.25424 -0.11864 -1 -0.44068 -1.6949 -0.44068 c-0.54237 0 -0.77983 0.20339 -0.77983 0.40678 c0 0.27119 0.4578 0.42373 1.2375 0.62712 c1.5085 0.40678 3 1.2034 3 2.7288 c0 1.4237 -1.4237 2.6098 -3.4915 2.6098 c-1.3898 0 -2.678 -0.6778 -3.1015 -1.0168 c-0.11864 -0.084746 -0.18644 -0.27119 -0.10169 -0.38983 z"/></g></svg>